<?xml version="1.0" encoding="UTF-8"?>
<svg width="282px" height="21px" viewBox="0 0 282 21" version="1.1" xmlns="http://www.w3.org/2000/svg" xmlns:xlink="http://www.w3.org/1999/xlink">
    <title>Group</title>
    <g id="Page-1" stroke="none" stroke-width="1" fill="none" fill-rule="evenodd">
        <g id="Artboard" transform="translate(-205.000000, -548.000000)" fill="#5A5E7D" fill-rule="nonzero">
            <g id="Group" transform="translate(205.000000, 548.000000)">
                <path d="M142.702518,5.88718868 C141.985669,4.63714129 140.342888,4.98599173 139.178007,5.27670042 C137.326144,5.74183433 135.53402,6.49767694 133.86137,7.42794476 C132.128983,8.41635432 130.575808,9.60825996 129.201846,10.9745908 C129.381059,10.0733939 129.440796,9.11405518 129.35119,8.18378736 C128.753815,2.1661174 120.928204,-2.54336345 115.462224,2.66032218 C112.953249,5.04413347 113.550624,11.6432208 118.210148,10.5385278 C120.987942,9.89896866 121.226891,5.94533042 118.449098,5.10227521 C117.284217,4.75342477 116.26868,5.07320434 115.611568,5.71276346 C115.880386,5.45112564 115.999861,4.69528303 116.208942,4.3464326 C116.50763,3.85222782 116.925792,3.44523565 117.373824,3.12545609 C118.807523,2.07890479 120.838598,1.99169218 122.302166,2.98010174 C125.020222,4.78249564 125.229303,8.82334649 124.183897,11.5560082 C123.078754,14.5212369 120.569779,16.9922608 117.582905,18.2132373 C114.566162,19.4342138 111.400075,19.5795682 108.323594,19.0562925 C105.09777,18.2423082 101.931683,16.9341191 99.0941522,15.4805756 C98.3773023,15.0445125 97.6604525,14.6084495 96.9436026,14.1433156 C99.3032334,14.9863708 101.812208,15.1026543 104.112101,13.6491108 C107.487269,11.5269373 108.293725,6.55581868 105.486063,3.70687347 C103.305645,1.4974874 99.3629709,0.886999142 96.8539964,2.60218044 C95.9579341,3.12545609 95.2410842,3.91036956 94.9423968,5.0150626 C94.3151532,7.25351954 96.0774091,9.69547257 98.6162523,9.34662214 C101.035621,9.02684257 101.812208,5.88718868 100.139558,4.28829086 C99.0642835,3.2998813 97.5708463,3.27081043 98.0786149,3.03824348 C100.378508,2.36961348 103.514726,4.31736173 104.052364,6.67210215 C105.038032,10.8292365 100.707064,13.1839769 97.0332089,12.4281343 C94.0463345,11.817646 91.7464412,9.75361431 89.4465479,7.89307867 C79.7392061,0.0439439291 65.9398464,-2.25265475 54.20143,2.36961348 C44.3746132,6.20696824 32.1881657,17.3701821 21.1964679,10.5966695 C20.1211931,9.92803953 19.2848683,8.76520475 18.0602498,8.38728345 C16.1785189,7.77679519 15.1032441,9.84082692 16.2979939,11.149016 C17.4628749,12.3990634 19.5835557,13.0676934 21.1665992,13.5909691 C23.3470175,14.3177408 26.0949419,14.6956621 28.3948352,14.2595991 C21.2860741,15.6550008 13.7292819,15.0445125 8.71133292,9.63733083 C7.54645191,8.38728345 6.79973331,6.78838563 5.39590234,5.74183433 C4.38036504,4.98599173 3.00640282,4.60807043 1.78178432,5.04413347 C-0.0402090645,5.65462172 -0.45837148,7.74772432 0.497428327,9.23033866 C3.24535277,13.387473 9.72687022,14.6084495 14.3565255,15.5096465 C24.571636,17.4864656 34.249109,14.5212369 43.1499947,9.75361431 C46.2264754,8.09657475 49.2432185,5.97440129 52.6183866,4.81156651 C55.1572298,3.93944043 59.4881977,3.2998813 61.6387473,5.48019651 C61.8179597,5.65462172 61.9971722,5.88718868 62.0569097,6.1488265 C62.4153346,7.80586606 58.2038417,7.92214954 57.3675169,8.67799214 C56.0831609,9.81175605 56.3818483,12.0211421 57.4869918,13.1839769 C59.338854,15.160796 61.8478285,14.3177408 63.3113969,12.5734886 C65.9995839,10.3641026 66.4177463,6.09068476 63.1620532,3.59059 C62.2659909,2.89288913 61.3101911,2.42775522 60.3543913,2.1661174 C63.9386405,1.46841653 67.6423648,1.32306218 70.9279266,3.06731435 C72.9291325,4.14293651 74.5420446,5.97440129 75.0199446,8.15471649 C75.318632,9.52104735 74.9900758,10.8292365 74.6017821,12.1374256 C74.3628322,12.9223391 73.8251948,13.7944652 73.8251948,14.6084495 C73.8251948,15.7712843 74.7809946,15.7422134 75.4978445,15.1898669 C76.483513,14.4630952 77.1107566,12.8932682 77.4393128,11.7885752 C77.9769502,9.92803953 77.7380003,7.89307867 76.8718067,6.17789737 C76.2146943,4.86970825 75.2588945,3.79408608 74.153751,2.92196 C77.0808879,3.21266869 79.9184186,3.91036956 82.6066055,5.10227521 C86.3700673,6.78838563 89.2075979,9.72454344 92.3736848,12.2537091 C100.468114,18.736513 113.431149,24.3762616 123.437179,18.5911586 C129.052502,15.3352212 131.800427,9.02684257 138.939057,8.18378736 C139.80525,8.06750388 140.850656,8.2419291 141.686981,7.98029128 C142.732387,7.68958258 143.240156,6.8174565 142.702518,5.88718868 Z" id="Path"></path>
                <path d="M140.313019,7.98029128 C141.149344,8.2419291 142.19475,8.06750388 143.060943,8.18378736 C150.199573,9.02684257 152.947498,15.3352212 158.562821,18.5911586 C168.568851,24.3762616 181.531886,18.736513 189.626315,12.2537091 C192.792402,9.72454344 195.629933,6.75931476 199.393394,5.10227521 C202.081581,3.91036956 204.919112,3.18359782 207.846249,2.92196 C206.711237,3.79408608 205.785306,4.89877912 205.128193,6.17789737 C204.262,7.89307867 204.02305,9.92803953 204.560687,11.7885752 C204.859375,12.8932682 205.516487,14.4630952 206.502156,15.1898669 C207.219005,15.7131425 208.204674,15.7712843 208.174805,14.6084495 C208.174805,13.7653943 207.637168,12.9223391 207.398218,12.1374256 C207.009924,10.8292365 206.651499,9.52104735 206.980055,8.15471649 C207.487824,5.97440129 209.100736,4.11386565 211.072073,3.06731435 C214.357635,1.32306218 218.061359,1.46841653 221.645609,2.1661174 C220.689809,2.45682609 219.734009,2.92196 218.837947,3.59059 C215.582254,6.0616139 216.000416,10.3641026 218.688603,12.5734886 C220.152172,14.3177408 222.661146,15.160796 224.513008,13.1839769 C225.588283,12.0211421 225.916839,9.81175605 224.632483,8.67799214 C223.76629,7.92214954 219.584665,7.80586606 219.94309,6.1488265 C220.002828,5.88718868 220.18204,5.68369259 220.361253,5.48019651 C222.511802,3.2998813 226.84277,3.93944043 229.381613,4.81156651 C232.78665,5.97440129 235.773525,8.09657475 238.850005,9.75361431 C247.750891,14.5503078 257.428364,17.4864656 267.643474,15.5096465 C272.243261,14.6084495 278.754647,13.4165439 281.502572,9.23033866 C282.458371,7.74772432 282.040209,5.65462172 280.218216,5.04413347 C279.023466,4.63714129 277.619635,4.98599173 276.604098,5.74183433 C275.200267,6.78838563 274.453548,8.38728345 273.288667,9.63733083 C268.270718,15.0154417 260.713926,15.6550008 253.605165,14.2595991 C255.905058,14.724733 258.652983,14.3177408 260.833401,13.5909691 C262.446313,13.0676934 264.537125,12.3990634 265.702006,11.149016 C266.896756,9.86989779 265.821481,7.80586606 263.93975,8.38728345 C262.715132,8.76520475 261.878807,9.9571104 260.803532,10.5966695 C249.811834,17.3411112 237.625387,6.20696824 227.79857,2.36961348 C216.030285,-2.22358388 202.230925,0.0439439291 192.553452,7.89307867 C190.283428,9.75361431 187.983534,11.817646 184.966791,12.4281343 C181.292936,13.1839769 176.961968,10.8583073 177.947636,6.67210215 C178.515142,4.31736173 181.651361,2.34054261 183.921385,3.03824348 C184.429154,3.27081043 182.935717,3.2998813 181.860442,4.28829086 C180.157923,5.88718868 180.964379,8.99777171 183.383748,9.34662214 C185.892722,9.69547257 187.654978,7.25351954 187.057603,5.0150626 C186.758916,3.93944043 186.042066,3.12545609 185.146004,2.60218044 C182.637029,0.916070011 178.694355,1.4974874 176.513937,3.70687347 C173.706275,6.58488954 174.512731,11.5269373 177.887899,13.6491108 C180.187792,15.1026543 182.696767,14.9863708 185.056397,14.1433156 C184.339548,14.6084495 183.652566,15.0445125 182.905848,15.4805756 C180.068317,16.9341191 176.90223,18.2423082 173.676406,19.0562925 C170.599925,19.608639 167.433838,19.4342138 164.417095,18.2132373 C161.430221,16.9922608 158.951115,14.5212369 157.816103,11.5560082 C156.770697,8.82334649 156.979778,4.78249564 159.697834,2.98010174 C161.191271,1.99169218 163.222346,2.07890479 164.626176,3.12545609 C165.104076,3.47430652 165.49237,3.88129869 165.791058,4.3464326 C166.000139,4.69528303 166.119614,5.45112564 166.388432,5.71276346 C165.701451,5.07320434 164.715783,4.75342477 163.550902,5.10227521 C160.802977,5.94533042 161.041927,9.89896866 163.789852,10.5385278 C168.449376,11.61415 169.046751,5.0150626 166.537776,2.66032218 C161.071796,-2.51429258 153.246185,2.19518826 152.64881,8.18378736 C152.559204,9.14312605 152.618941,10.0733939 152.798154,10.9745908 C151.424192,9.60825996 149.871017,8.38728345 148.13863,7.42794476 C146.495849,6.49767694 144.703724,5.74183433 142.821993,5.27670042 C141.657112,4.98599173 140.014331,4.63714129 139.297482,5.88718868 C138.84945,6.8174565 139.357219,7.68958258 140.313019,7.98029128 Z" id="Path"></path>
            </g>
        </g>
    </g>
</svg>